# xmcd CD database file
#
# Track frame offsets:
#	150
#	20165
#	40513
#	58870
#	78038
#	98040
#	116618
#	135343
#	154998
#	181140
#	203060
#	220385
#
# Disc length: 3265 seconds
#
# Revision: 2
# Processed by: cddbd v1.5.2PL0 Copyright (c) Steve Scherf et al.
# Submitted via: CDex 1.51
#
DISCID=9a0cbf0c
DTITLE=Farm Dogs - Last Stand in Open Country
DYEAR=1996
DGENRE=Americana
TTITLE0=Me and My Friends
TTITLE1=Cinderella '67
TTITLE2=Beautiful (I Don't Want to Be)
TTITLE3=Shameless
TTITLE4=Burn This Bed
TTITLE5=Color Bar
TTITLE6=Pretty Bombs
TTITLE7=Barstool
TTITLE8=The Ballad of Dennis Hopper and Harry Dean
TTITLE9=Bone of Contention
TTITLE10=In Paradise
TTITLE11=Last Stand in Open Country
EXTD=YEAR: 1996
EXTT0=
EXTT1=
EXTT2=
EXTT3=
EXTT4=
EXTT5=
EXTT6=
EXTT7=
EXTT8=
EXTT9=
EXTT10=
EXTT11=
PLAYORDER=
